<?xml version="1.0" encoding="UTF-8"?><svg id="Layer_1" xmlns="http://www.w3.org/2000/svg" width="32" height="32" viewBox="0 0 32 32"><defs><style>.cls-1{fill:#d9d8d7;}.cls-1,.cls-2,.cls-3,.cls-4{stroke-width:0px;}.cls-2{fill:#000;}.cls-3{fill:#969390;}.cls-4{fill:#fff;}</style></defs><path class="cls-4" d="M17.54,18.64c.95,1.52,2.59,3.06,3.54,4.54,1.06,1.63,2.07,3.14,3.07,4.39,1.53,1.92,2.66,3.3,3.87,3.3,1.7,0,3.38-.99,3.38-2.8,0-1.59-1.09-3.04-2.79-4.51-1.04-.9-2.47-1.81-4.09-3.12-1.16-.94-2.75-1.5-4.2-2.8-1.57-.55-2.09-.32-2.79,1Z"/><path class="cls-1" d="M24.59,20.66c-1.47.34-2.07.57-1.82,1.91.66.71,1.46,1.48,2.01,2.25.65.91,1.08,1.92,1.62,2.45.64.64,1.5.87,2.04,1.28.82.62,1.37,1.2,1.72,1.6.32.36-1.29.83-2.79.56-1.11-.2-1.21-.19-2.04-.95-1.06-.97-.86-1.19-1.75-2.32-.61-.78-.42-.91-.96-1.73-.54-.83-.77-.67-1.33-1.49-.98-1.44-1.02-1.42-1.85-2.95-.2-.36-.21-.44-.12-.84.17-.75,0-.96.56-1.5.46-.44.69,0,1.33-.08.45-.05.45-.17.9-.09,1.57.27,1.78.47,2.47,1.88Z"/><path class="cls-3" d="M19.31,20.87c-.21-.74.02-.73.49-1.34.36-.47.36-.5.93-.66.67-.19.72-.3,1.36-.03.97.4,1.18.33,1.78,1.2-.59.15-1.36.83-1.88,1.54-.48.67-.83,1.39-1.06,1.95-1.45-.67-1.17-1.13-1.62-2.66Z"/><path class="cls-2" d="M28.06,32c-.72,0-1.79-.1-2.8-.94-.52-.44-1.2-1.03-1.82-1.77-.46-.55-1-1.19-1.5-1.9-.29-.4-.48-.82-.66-1.23-.15-.32-.28-.63-.45-.89-.24-.36-.45-.74-.65-1.13-.16-.31-.33-.62-.52-.91-.33-.52-.66-1.05-.99-1.58l-.25-.41c-.18-.3-.44-.6-.69-.9-.3-.36-.6-.73-.84-1.11l-.43-.69.57-.57c.15-.15.27-.28.39-.41.83-.88,1.42-1.41,3.15-1.2l.32.04.24.21c.66.6,1.27,1.13,1.87,1.64.37.31.74.58,1.11.84.32.23.62.45.91.68.44.35.85.68,1.25.99l.74.58c.49.39.92.79,1.32,1.16.21.2.41.38.61.56.75.66,1.36,1.32,1.87,2.03.61.86,1.23,1.73,1.23,2.91s-.58,2.06-1.15,2.78c-.65.82-1.56,1.22-2.79,1.22ZM19.08,18.77c.07.09.15.17.22.26.3.36.61.74.85,1.13l.26.41c.32.52.65,1.04.98,1.56.22.34.41.69.59,1.04.18.33.36.66.56.97.26.39.45.81.61,1.18.15.33.29.65.46.87.47.65.96,1.24,1.41,1.78.52.62,1.08,1.12,1.57,1.52.49.41,1,.47,1.48.47.69,0,.97-.18,1.18-.44.37-.47.71-.98.71-1.51,0-.5-.3-.94-.79-1.63-.47-.67-.98-1.22-1.61-1.77-.21-.19-.43-.39-.66-.6-.36-.34-.75-.7-1.19-1.06l-.73-.57c-.4-.32-.83-.65-1.27-1.01-.25-.2-.53-.4-.81-.6-.41-.29-.83-.59-1.24-.94-.54-.46-1.08-.93-1.67-1.46-.42-.04-.54.02-.91.41Z"/><path class="cls-4" d="M24.39,8.07c-.97-.28-2.53-1.08-4.51-1.66-1.4-.41-2.84-1.35-4.46-1.82-1.52-.44-3.29-.22-4.81-.66-1.64-.47-3.07-1.46-4.46-1.86-2.09-.6-3.93-.48-4.78-.71-.28-.07-.31-.21-.23.07.24.84.33,2.6.94,4.66.41,1.37,1.5,2.74,1.98,4.36.45,1.5.66,3.12,1.11,4.63.48,1.61,1.12,3.11,1.53,4.49.58,1.96,1.13,3.56,1.41,4.53.56,1.9.43,3.62,1.07,4.65.88,1.41,2.31,1.72,4.23,1.72,3.31,0,3.69-.36,4.33-3.13.78-3.37.6-3.41,1.4-6.77.19-.82.82-1.18,1.64-1.37,3.43-.8,3.27-1.48,6.71-2.26,2.78-.63,3.5-.36,3.5-3.65,0-1.91-.87-2.74-2.31-3.62-1.03-.63-2.4-1.04-4.3-1.59Z"/><path class="cls-1" d="M4.01,4.45c.18,1.33.04,1.35.22,2.67s.37,1.3.55,2.62c.18,1.33.3,1.31.48,2.64.18,1.33-.03,1.36.15,2.69s.05,1.36.33,2.67c.25,1.14.43,1.1.77,2.21s.5,1.07.84,2.19.06,1.2.41,2.32c.34,1.12.24,1.16.65,2.26.33.89.28.98.83,1.76.66.94.63,1.12,1.61,1.73.75.46.93.43,1.81.44,1.39.01,1.41-.21,2.73-.63.86-.27,1.01-.16,1.41-.98.73-1.51.41-1.59.79-3.23.3-1.34.48-1.28.87-2.59s.06-1.42.56-2.69c.32-.82.12-1.11.89-1.55.95-.55,1.16.19,2.23-.02,1.17-.23,1.13-.42,2.28-.74s1.14-.34,2.23-.82c1.43-.62,1.72-1.03,1.72-2.31,0-.98-.06-1.74-.61-2.28-.47-.45-1.3-.6-2.2-1.01-.62-.29-1.38-.53-2.23-.89-.51-.22-1.18-.88-2.2-1.25-.7-.26-1.62-.22-2.48-.53-.75-.27-1.53-.61-2.35-.89s-1.58-.56-2.38-.83c-.8-.27-1.59-.61-2.37-.88-.83-.28-1.66-.45-2.42-.7-.87-.29-1.7-.51-2.41-.75-1.05-.35-1.85-.74-2.34-.9-.24-.08-.42.03-.38.27Z"/><path class="cls-2" d="M13.27,32c-1.07,0-2.03,0-2.86-.5-.73-.43-1.36-1.14-1.98-2.24-.39-.69-.68-1.52-.98-2.4-.16-.45-.22-.91-.27-1.36-.05-.38-.09-.73-.19-1.07-.04-.13-.17-.36-.3-.59-.24-.42-.54-.93-.73-1.58-.13-.43-.16-.87-.2-1.3-.03-.39-.06-.76-.16-1.09-.1-.31-.24-.62-.38-.94-.18-.41-.37-.84-.51-1.29-.12-.41-.2-.83-.27-1.27-.06-.36-.12-.73-.23-1.08-.08-.28-.25-.58-.42-.89-.21-.38-.45-.81-.59-1.3-.12-.41-.22-.83-.32-1.24-.09-.36-.17-.73-.28-1.08-.11-.37-.25-.73-.38-1.09-.15-.39-.29-.78-.41-1.16-.15-.48-.22-.96-.28-1.38-.05-.34-.1-.67-.19-.97-.11-.37-.28-.73-.45-1.08-.17-.37-.35-.74-.47-1.14-.21-.7-.25-1.36-.28-1.83-.01-.22-.03-.47-.06-.57-.05-.19-.22-.78.24-1.25C.62.01,1.04-.07,1.55.06c.18.05.4.1.66.15.47.1,1.04.23,1.69.42.35.1.72.24,1.11.39.37.14.76.29,1.17.41.25.07.59.1.94.13.45.04.96.08,1.47.23.41.12.82.29,1.23.47.34.15.68.3,1.04.41.41.12.81.27,1.21.42.36.13.72.27,1.08.38.3.09.65.12,1.02.16.45.04.91.09,1.39.23.48.14.92.36,1.31.55.33.16.64.32.93.4.31.09.67.12,1.05.14.44.03.9.06,1.37.2.52.15.97.37,1.38.56.3.14.58.28.87.36.57.17,1.08.37,1.51.55.28.12.53.22.75.28h0c.31.09.65.12,1.01.14.45.03.92.07,1.39.24,1,.36,1.79.83,2.3,1.14.98.61,1.65,1.3,2.03,2.1.35.73.53,1.66.53,2.77,0,1.59-.89,2.62-1.37,3.17l-.36.43c-.76.91-1.08,1.16-2.43,1.47-.66.15-1.02.17-1.34.18-.28.01-.5.02-.99.14-.5.12-.75.21-.99.3-.31.12-.62.24-1.26.38-.67.16-1.04.17-1.36.18-.28,0-.5.02-.97.13-.24.06-.48.49-.64,1.15-.16.69-.35,1.04-.5,1.33-.13.24-.22.41-.32.85-.13.53-.17.8-.22,1.07-.05.3-.1.6-.24,1.19-.14.59-.24.89-.33,1.18-.08.26-.17.51-.29,1.04-.07.31-.12.57-.16.78-.16.92-.3,1.45-1.32,2.47-.83.83-2.13,1.27-3.63,1.27ZM2.19,2.31c.03.34.07.71.18,1.09.08.28.22.55.36.85.19.4.41.85.56,1.37.12.39.19.81.25,1.25.06.36.11.73.22,1.1.11.35.23.69.36,1.04.15.4.3.8.42,1.22.12.39.21.8.31,1.21.09.37.17.74.28,1.11.09.28.25.58.43.91.21.38.44.81.59,1.29.13.44.21.88.29,1.33.06.35.12.69.22,1.02.11.37.27.71.42,1.05.18.4.34.79.46,1.18.16.54.2,1.07.24,1.53.02.33.05.64.11.86.13.42.34.79.55,1.14.2.35.39.67.49,1.03.15.49.21.97.26,1.38.05.36.09.69.18.94.29.83.54,1.54.83,2.07.43.76.83,1.24,1.23,1.48.37.21,1.11.21,1.83.21.98,0,1.76-.24,2.18-.67.62-.62.63-.7.75-1.38.04-.24.09-.53.18-.89.14-.61.24-.91.34-1.21.08-.25.16-.5.29-1.01.13-.53.17-.8.22-1.07.05-.3.1-.6.24-1.19.16-.68.35-1.04.5-1.33.13-.24.22-.41.32-.85.45-1.89,1.42-2.5,2.16-2.67.67-.16,1.04-.17,1.36-.18.28,0,.5-.02.97-.13.51-.12.75-.21,1-.3.31-.12.62-.23,1.25-.38.67-.16,1.03-.17,1.36-.19.27-.01.5-.02.98-.13q.82-.19,1.31-.78l.39-.46c.48-.55.87-1.07.87-1.84s-.11-1.43-.33-1.88c-.21-.44-.64-.86-1.28-1.26-.47-.29-1.1-.66-1.91-.95-.2-.07-.51-.1-.84-.12-.43-.03-.92-.07-1.43-.22-.28-.08-.59-.21-.95-.35-.38-.16-.82-.34-1.32-.48-.41-.12-.79-.3-1.16-.48-.37-.17-.72-.34-1.08-.45-.25-.07-.58-.1-.93-.12-.45-.03-.96-.07-1.48-.22-.46-.13-.86-.33-1.25-.53-.34-.17-.67-.33-.99-.42-.29-.08-.63-.12-1-.15-.43-.04-.92-.09-1.4-.23-.42-.12-.82-.27-1.22-.42-.36-.13-.71-.27-1.07-.37-.44-.13-.87-.31-1.28-.49-.33-.14-.65-.29-.99-.38-.32-.09-.68-.12-1.07-.15-.44-.04-.89-.07-1.34-.2-.47-.14-.91-.3-1.33-.46-.33-.13-.65-.25-.95-.34-.42-.12-.81-.21-1.15-.29Z"/><path class="cls-3" d="M6.87,7.3c.28.73,1.14,4.5-.19,4.37-.23-.04-.41-.22-.45-.44-.22-1.21-.39-2.46-.42-3.73-.03-.6.87-.76,1.05-.2h0Z"/><path class="cls-3" d="M9.82,9.39c1.23,1.84,1.18,4.31.47,6.33-.14.37-.55.55-.91.41-.26-.1-.43-.33-.45-.58-.11-1.02-.07-1.98-.18-2.94-.04-.94-.14-1.87-.29-2.78-.06-.39.2-.76.59-.82.33-.06.61.13.78.39h0Z"/><path class="cls-3" d="M10.41,17.64c.04.89-.05,1.77-.26,2.65-.12.47-.82.48-.96.03-.26-.87-.4-1.77-.41-2.67.04-1.03,1.59-1.02,1.63,0h0Z"/><path class="cls-3" d="M12.98,13.08c.31,2.01,1.39,4.3.63,6.44-.25,1.26-.32,2.56-.81,3.81-.14.38-.56.56-.94.42-.3-.12-.49-.42-.47-.73.09-1.59.09-3.49.46-5.04.4-1.05-1.41-5.55.5-5.55.34.04.6.32.63.65h0Z"/><path class="cls-3" d="M16.81,15.67c.52,1.1.44,6.88-1.5,6.22-.35-.14-.56-.5-.52-.86.23-1.8.33-3.35.37-5.17.03-.93,1.43-1.07,1.66-.18h0Z"/><path class="cls-3" d="M15.66,23.62c-.19.96-.6,1.45-.62,2.31.02.31-.22.57-.53.57-.84-.09-.63-1.34-.59-1.9.27-.83-.02-1.85.99-1.93.49,0,.87.48.75.95h0Z"/><path class="cls-3" d="M12.57,25.35c-.11.92.38,1.52.45,2.5.05.63-.9.78-1.06.18-.33-.76-.99-1.76-.94-2.7-.03-1.07,1.61-1.04,1.55.02h0Z"/></svg>
