<?xml version="1.0" encoding="UTF-8"?><svg id="Layer_1" xmlns="http://www.w3.org/2000/svg" width="32" height="32" viewBox="0 0 32 32"><defs><style>.cls-1{fill:#d9d8d7;}.cls-1,.cls-2,.cls-3,.cls-4{stroke-width:0px;}.cls-2{fill:#000;}.cls-3{fill:#969390;}.cls-4{fill:#fff;}</style></defs><path class="cls-4" d="M16,30.02c-.17,0-.34-.02-.48-.07-.17-.06-.33-.13-.44-.21-.05-.04-.19-.24-.28-.36-.08-.11-.15-.2-.22-.29-.02-.03-.05-.06-.08-.09,0-.02,0-.05,0-.07,0-.15.02-.3.02-.45,0-.46-.05-.74-.11-.98l-.02-.14v-1.12c.08-.33.15-.64.15-1.12,0-.19,0-.29.02-.39.02-.18.03-.37.03-.73,0-.57-.11-.94-.18-1.15v-.12c.06-.25.12-.52.12-.98v-1.05c.26-1.01.03-1.85-.67-2.55-.62-.62-1.29-.75-1.73-.75-.4,0-.72.1-.93.19-.01,0-.03,0-.04,0-.23-.04-.5-.08-.92-.08-.35,0-.52.01-.7.02-.11,0-.21.01-.43.01-.15,0-.23,0-.3-.02-.21-.03-.41-.05-.82-.05-.43,0-.65.03-.86.07-.07,0-.13.02-.26.02-.31,0-.46,0-.62,0-.13,0-.25,0-.5,0-.37,0-.55.02-.73.03-.1,0-.2.02-.39.02l-.15-.02c-.25-.05-.52-.1-.98-.1-.15,0-.29-.02-.46-.08-.15-.05-.28-.11-.4-.21-.11-.08-.22-.19-.32-.33-.12-.17-.2-.3-.23-.39-.03-.08-.1-.31-.1-.46.01-.05.06-.15.09-.25l.06-.19c.06-.18.12-.3.19-.41l.07-.1c.08-.11.18-.26.23-.3.04-.03.17-.1.4-.18.03-.01.14-.03.46-.03.41,0,.67-.04.89-.07.06,0,.12-.02.24-.02.39,0,.59-.02.78-.04.09,0,.17-.02.34-.02s.26,0,.35.02c.19.02.39.04.77.04.33,0,.49,0,.65-.01.12,0,.24-.01.47-.01.12,0,.17,0,.23.02.22.04.48.07.89.07.35,0,.53-.01.7-.02.11,0,.21-.01.42-.01.41,0,.62-.03.82-.05.03,0,.05,0,.08,0,.25.12.61.25,1.06.25s1.1-.13,1.71-.74c.37-.37,1.11-1.34.5-2.72.06-.27.1-.55.1-.95,0-.26.01-.82.01-1.12,0-.19,0-.28.02-.37.02-.19.04-.37.04-.75v-1.12c0-.39-.02-.59-.04-.78,0-.08-.02-.17-.02-.34,0-.48-.06-.78-.13-1.03v-.13c.06-.27.13-.59.13-1.08,0-.06.07-.25.11-.39.06-.19.1-.36.14-.53.12-.08.25-.16.36-.24l.13-.1c.09-.07.18-.15.28-.2.02,0,.11.02.21.02h.22c.11,0,.24.03.44.09.12.04.24.1.39.21.14.1.28.19.42.28.03.02.06.04.09.05.03.05.06.11.09.17,0,.01,0,.02,0,.04-.02.2-.04.4-.04.61,0,.38.02.57.04.76,0,.09.02.18.02.36,0,.47.06.76.11,1.01v.12c.01.09,0,.14,0,.18-.05.24-.09.51-.09.94,0,.5.07.81.14,1.07,0,.27,0,.38,0,.49,0,.16-.02.33-.02.64-.08.25-.19.61-.19,1.16,0,.34.01.51.02.68,0,.11.01.22.01.44-.08.38-.3,1.44.73,2.47.54.54,1.17.81,1.85.81.17,0,.34-.02.54-.05.39-.01.55-.02.7-.02.13,0,.25,0,.5,0,.33,0,.5,0,.67-.02.12,0,.23-.01.46-.01.43,0,.65-.03.86-.07.06,0,.13-.02.26-.02h.12c.24.07.54.13,1,.13.51,0,.83-.08,1.09-.15,0,0,0,0,0,0,.24.08.61.18,1.15.18.49,0,.81-.07,1.07-.15.04.01.08.03.12.05.12.05.25.09.37.13.13.04.24.1.39.21.17.12.27.21.33.3l.08.11c.07.1.15.18.2.29.03.09.07.22.09.32,0,0,0,.01,0,.02-.08.17-.15.35-.21.52-.05.17-.09.35-.13.52-.12.07-.23.15-.34.22l-.18.13c-.06.05-.12.1-.18.14,0,0-.49,0-.49,0-.41,0-.67.04-.89.07-.06.01-.12.02-.24.02-.34,0-.51.01-.68.02-.11,0-.22.01-.45.01-.32,0-.48,0-.64.01-.12,0-.24,0-.48,0-.31-.08-.63-.15-1.12-.15-.45,0-.72.05-.97.1q-.08.02-.16.02c-.24,0-.36,0-.48,0-.16,0-.32-.01-.64-.01-.4,0-.6.02-.8.05-.02,0-.04,0-.06,0-.29-.15-.69-.31-1.19-.31-.63,0-1.23.26-1.7.72-.37.37-1.14,1.38-.44,2.85,0,.04,0,.07-.01.1-.02.2-.04.39-.04.79,0,.23,0,.34-.01.45,0,.17-.02.34-.02.67,0,.47.06.77.12,1.02v.1c-.07.27-.15.6-.15,1.12,0,.34.01.51.02.68,0,.11.01.22.01.44,0,.47.06.77.12,1.01v.11c-.06.32-.13.63-.13,1.12,0,.13,0,.26.01.38h0c-.13.14-.25.28-.35.42-.12.16-.22.33-.32.5,0,.02-.02.03-.03.05-.11.07-.21.11-.29.14-.03.01-.17.05-.49.05Z"/><path class="cls-1" d="M16.21,9.24c.02-.45-.08-.91-.07-1.36s.06-.9.06-1.35-.05-.9-.06-1.35c-.02-.39-.11-.77-.38-1.05s-.64-.36-1.05-.34c-.39.02-.82.07-1.09.33s-.46.67-.44,1.09c.01.35.06.7.07,1.05s-.05.7-.05,1.06.11.71.1,1.06-.13.7-.15,1.05c-.02.36-.02.72-.05,1.07s.12.72.11,1.07-.19.71-.16,1.07.21.68.28,1.04c.15.77.38.88,1.18.88.58,0,.96-.19,1.22-.46s.33-.64.29-1.22c0-.02,0-.56.01-1.22.01-.39.22-.81.23-1.21.02-.53-.06-1-.04-1.21Z"/><path class="cls-1" d="M18.51,28.17c-.14-.48-.46-.33-.87-.03-.3.23-.58.52-.93.54-.44.03-.79-.18-.92-.63-.1-.33-.02-.77-.02-1.2,0-.39.03-.8.06-1.19.04-.47.09-.89.11-1.18.03-.4-.04-.8-.03-1.21s.18-.8.18-1.2-.18-.81-.18-1.21.1-.81.09-1.21.04-.72.03-1.12-.07-.36-.08-.75c-.01-.44-.44-.36-.91-.79-.41-.38-.34-1.01-.73-1.05-.39-.04-.5-.06-.89-.09s-.78-.13-1.17-.15-.79.06-1.18.05-.78-.15-1.17-.15-.78,0-1.18.02-.78.06-1.17.08-.78-.02-1.17,0-.77.16-1.17.19-.79-.06-1.18-.03c-.42.03-.87.4-1.03.81-.15.37.02.73.47,1.08.3.23.33.62.47.83.18.25.37.29.81.19.39-.09.81-.03,1.2-.09s.78-.19,1.18-.22.8-.08,1.19-.09.8-.03,1.2-.02.79.22,1.18.24.8-.12,1.2-.09.87.08,1.27.11c-.02.41-.19.88-.21,1.29s-.06.81-.07,1.22.13.82.13,1.22-.11.81-.11,1.22.14.81.14,1.22.08.81.09,1.22c.01.34-.17.7-.17,1.07s.02.72.06,1.07.26.67.39.99.28.61.53.87c.31.31.63.52,1.02.64s.8.23,1.22.22.83-.14,1.23-.21c.29-.05.63-.2.82-.54.16-.28.1-.68.18-1,.08-.38.13-.71.05-.95Z"/><path class="cls-3" d="M14.48,13.93c-.52-1.18-.6-2.49,0-3.65.22-.36.81-.22.85.2.12.98.06,2.27-.07,3.3-.04.39-.6.5-.78.15h0Z"/><path class="cls-1" d="M28.67,13.86c.25.23.42.41.53.71.09.26.19.52.17.9-.02.42-.45.49-1.06.52-.42.02-.89-.03-1.35-.09-.54-.07-1.06.04-1.38,0-.43-.05-.86-.26-1.3-.28s-.88.07-1.32.07-.88.04-1.31.05-.88.06-1.31.08-.89-.14-1.32-.13c-.58.01-.99.28-1.22.57-.28.34-.21.84-.21,1.27,0,.42.09.75.39.96.29.2.68.31,1.07.31.4,0,.79,0,1.19.01s.79-.08,1.19-.08.79.17,1.19.17.79-.18,1.19-.17.79.12,1.19.12.79,0,1.19,0c.38,0,.78.02,1.2.03s.8-.09,1.19-.12.79-.05,1.15-.2c.36-.15.62-.37.87-.62s.51-.51.68-.85.19-.69.29-1.05c.07-.25-.17-.67-.66-1.06-.34-.27-.75-.55-1.11-.78-.71-.44-1.4-.58-1.13-.34Z"/><path class="cls-3" d="M22.78,16.54c1.1-.42,2.39-.51,3.61-.08.39.16.32.6-.09.64-.95.11-2.23.1-3.27.02-.4-.02-.57-.44-.25-.58h0Z"/><path class="cls-2" d="M28.41,12.51c-.62,0-.62-.07-1.25-.07s-.62.18-1.25.18-.62.05-1.25.05-.62-.03-1.25-.03-.62-.03-1.25-.03-.63,0-1.25,0-.63-.1-1.25-.1c-.09,0-.2-.02-.2-.11,0-.62.15-.62.15-1.24s-.03-.62-.03-1.24-.2-.62-.2-1.25.23-.62.23-1.24-.09-.62-.09-1.25-.02-.62-.02-1.25-.04-.62-.04-1.25c0-.41-.01-.81-.14-1.19s-.38-.7-.63-1.02-.47-.67-.82-.88-.74-.29-1.15-.37c-.43-.09-.85-.24-1.25-.19-.42.06-.85.22-1.21.42s-.67.52-.95.84-.53.67-.68,1.06-.23.82-.23,1.24c0,.63.19.63.19,1.26s-.19.63-.19,1.26.09.63.09,1.26.02.63.02,1.26.03.63.03,1.26-.17.63-.17,1.26.06.63.06,1.26c0,.09-.02.26-.11.26-.62,0-.62-.12-1.25-.12s-.62,0-1.25,0-.62,0-1.25,0-.62.09-1.25.09-.62-.16-1.25-.16-.63.18-1.25.18-.63-.11-1.25-.11c-.41,0-.82.08-1.2.21s-.75.33-1.06.58-.5.61-.72.95-.41.66-.49,1.07c-.09.43-.07.82,0,1.21.06.42.12.83.31,1.18s.52.63.84.9.6.6.99.75.81.22,1.24.22c.63,0,.63-.04,1.26-.04s.63.06,1.26.06.63-.12,1.26-.12.63.11,1.26.11.63-.02,1.26-.02.63-.16,1.27-.16.63.18,1.27.18c.09,0,.26.01.26.1,0,.62-.13.62-.13,1.24s.09.62.09,1.24.03.62.03,1.25.02.62.02,1.24-.2.62-.2,1.25.17.62.17,1.25.03.62.03,1.25c0,.41-.11.83.01,1.21s.31.79.55,1.1.65.5.99.71.68.47,1.08.55c.43.09.85-.03,1.25-.09.42-.06.77-.24,1.13-.44s.8-.32,1.07-.63.5-.69.64-1.08.07-.81.07-1.24c0-.63.01-.63.01-1.26s.02-.63.02-1.26.07-.63.07-1.26-.08-.63-.08-1.26.15-.63.15-1.26-.19-.63-.19-1.26.06-.63.06-1.26c0-.09.11-.05.19-.05.63,0,.63-.14,1.26-.14s.63-.06,1.26-.06.63,0,1.26,0,.63.05,1.26.05.63.01,1.26.01.63.14,1.27.14.63-.13,1.27-.13c.43,0,.87.02,1.25-.12s.73-.43,1.05-.7.55-.62.75-.98.42-.73.49-1.15c.06-.39.02-.83-.06-1.26s-.19-.83-.41-1.16-.56-.62-.88-.86-.72-.35-1.11-.49-.76-.27-1.18-.27ZM28.5,17.49c-.58,0-.58-.07-1.17-.07s-.59.18-1.17.18-.59.05-1.17.05-.59-.03-1.17-.03-.59-.03-1.17-.03-.59,0-1.17,0-.59-.1-1.17-.1-.59.09-1.18.09-.59-.15-1.18-.15c-.24,0-.52.3-.52.55,0,.58.2.58.2,1.16s-.23.58-.23,1.17.09.58.09,1.17.02.58.02,1.17.04.58.04,1.17-.06.58-.06,1.17.07.58.07,1.17-.1.59-.1,1.17.08.59.08,1.17c0,.41-.29.71-.56.98s-.57.42-.98.42-.76-.1-1.04-.37-.39-.62-.39-1.03c0-.58.01-.58.01-1.16s-.19-.58-.19-1.17.19-.58.19-1.17-.09-.58-.09-1.17-.02-.58-.02-1.17-.03-.58-.03-1.17.17-.58.17-1.17-.06-.59-.06-1.17-.15-.59-.15-1.17c0-.24-.1-.46-.34-.46-.58,0-.58,0-1.17,0s-.59,0-1.17,0-.59.09-1.17.09-.59-.16-1.17-.16-.59.18-1.17.18-.59-.11-1.17-.11-.59.01-1.17.01-.59.01-1.18.01-.59.11-1.18.11c-.41,0-.83-.24-1.1-.51s-.48-.68-.48-1.09.25-.79.52-1.06.65-.52,1.06-.52c.58,0,.58.14,1.17.14s.59,0,1.17,0,.59-.04,1.17-.04.59.06,1.17.06.59-.12,1.17-.12.59.11,1.17.11.59-.02,1.17-.02.59-.16,1.18-.16.59.18,1.18.18c.24,0,.35-.25.35-.5,0-.58.13-.58.13-1.16s-.09-.58-.09-1.17-.03-.58-.03-1.17-.02-.58-.02-1.17.2-.58.2-1.17-.17-.58-.17-1.17-.03-.58-.03-1.17.19-.59.19-1.17.03-.59.03-1.17c0-.41.03-.81.3-1.08s.67-.34,1.09-.34.83.06,1.1.33.51.69.51,1.1c0,.58-.18.58-.18,1.16s0,.58,0,1.17.15.58.15,1.17-.01.58-.01,1.17-.02.58-.02,1.17-.07.58-.07,1.17.08.58.08,1.17-.15.59-.15,1.17.19.59.19,1.17c0,.24.1.41.35.41.58,0,.58.14,1.17.14s.59-.14,1.17-.14.59-.06,1.17-.06.59,0,1.17,0,.59.05,1.17.05.59.01,1.17.01.59.14,1.17.14.59-.13,1.18-.13.59.11,1.18.11c.41,0,.78.09,1.05.36s.47.63.47,1.04-.24.73-.51,1-.59.46-1.01.46Z"/><path class="cls-3" d="M13.91,17.13c-1.19-.15-1.21-.05-2.43.05-.45-.03-1.04-.07-1.49-.11-.51-.05-.86.04-1.44.1-.2.02-.39-.1-.42-.28-.03-.15.07-.3.23-.35.44-.17,1.02-.39,1.52-.4.39-.03,1.17-.08,1.56-.08.41,0,.93-.1,1.56-.05.6.06.59.16,1.05.28.55.13.68.89.13.85h-.26Z"/><path class="cls-3" d="M18.72,16.43c.95-.2,2.29-.07,3.12.06.36.04.45.49.14.64-1.1.4-2.2.18-3.3-.08-.34-.09-.31-.56.04-.62h0Z"/><path class="cls-3" d="M15.59,20.36c.2.95.07,2.28-.06,3.11-.04.36-.49.45-.64.14-.4-1.1-.18-2.19.08-3.29.09-.34.56-.31.62.04h0Z"/><path class="cls-3" d="M14.82,19.14c-.04-.27-.08-.9.01-1.26.1-.4.7-.41.81-.02.1.6.26,1.02-.1,1.69-.29.37-.57-.21-.72-.4h0Z"/><path class="cls-2" d="M17.11,16c0,.55-.55,1.03-1.11,1.03s-.95-.47-.95-1.03.39-.97.95-.97,1.11.41,1.11.97Z"/></svg>
