<?xml version="1.0" encoding="UTF-8"?><svg id="Layer_1" xmlns="http://www.w3.org/2000/svg" width="32" height="32" viewBox="0 0 32 32"><defs><style>.cls-1{fill:#d9d8d7;}.cls-1,.cls-2,.cls-3,.cls-4{stroke-width:0px;}.cls-2{fill:#000;}.cls-3{fill:#969390;}.cls-4{fill:#fff;}</style></defs><path class="cls-4" d="M27.81,16.63c0-.3.33-.53.48-.8.21-.38.19-.87.36-1.27s.27-.81.4-1.22.48-.76.57-1.19.21-.85.27-1.28-.09-.88-.07-1.32.18-.86.18-1.3-.19-.86-.21-1.3c-.03-.42-.21-.75-.41-1.09s-.32-.81-.66-1.03-.77-.38-1.19-.43c-.39-.05-.77.19-1.18.34-.37.13-.66.3-.92.58s-.48.56-.61.92-.29.71-.26,1.1c.03.5.14.98.13,1.45-.01.5-.26.96-.32,1.42-.07.5.08,1.02-.05,1.46-.14.48-.39.91-.59,1.33-.05.11-.14.19-.31.11-.15-.07-.17-.17-.15-.28.11-.44.1-.9.16-1.37s.07-.9.07-1.37.04-.91-.01-1.38-.11-.91-.21-1.37-.04-.95-.19-1.39-.47-.82-.66-1.24-.27-.9-.5-1.31-.62-.66-.97-.91-.79-.36-1.22-.42-.9-.13-1.31.04c-.5.2-.91.59-1.19.98-.29.42-.55.94-.57,1.45s.19,1.03.46,1.49c.26.44.59.84.75,1.3.18.49.26.99.34,1.46.09.52.1,1.02.1,1.49,0,.54.01,1.06-.1,1.49-.05.17-.15.47-.33.46s-.18-.19-.2-.5c-.03-.45-.13-.88-.2-1.28-.08-.45-.22-.86-.35-1.25-.14-.44-.29-.83-.47-1.2-.2-.42-.42-.78-.65-1.11-.27-.39-.53-.72-.8-1-.29-.3-.49-.7-.82-.94s-.72-.43-1.08-.62-.76-.35-1.15-.48-.81-.13-1.22-.2-.8-.2-1.22-.2c-.44,0-.87.09-1.28.16s-.89.05-1.29.19-.81.34-1.18.55-.65.58-.98.85-.64.56-.93.88-.67.58-.9.94-.21.86-.37,1.25-.35.77-.45,1.18-.34.83-.35,1.25c-.02.46.08.97.26,1.37s.61.7.97.97.74.63,1.21.68c.52.06,1.04-.19,1.47-.39s.9-.51,1.17-.93.4-.93.4-1.45c0-.34.1-.71.33-1.08.2-.32.48-.55.84-.75.32-.18.65-.3,1.08-.3.61,0,1.32.08,1.79.57.28.3.29.82.45,1.26.14.37.4.75.45,1.22.05.4-.13.84-.16,1.31,0,.01.17.57.13,1.37-.02.4,0,.87-.03,1.36-.03.44-.29.89-.34,1.34s.05.96-.03,1.38c-.07.38-.28.74-.54,1.04-.24.29-.59.44-.99.57-.34.11-.72.39-1.16.34-.6-.08-.92-.59-1.23-.95-.35-.4-.58-.84-.6-1.34-.02-.57-.16-1.16-.45-1.61s-.81-.72-1.37-.9c-.43-.14-.85-.37-1.25-.32-.43.06-.87.26-1.21.5s-.62.62-.82,1-.18.8-.18,1.24-.1.89-.03,1.31c.07.43.3.83.44,1.23s.13.91.34,1.29.72.56,1,.9.42.8.75,1.08.74.47,1.12.69c.62.35.67.26,1.29.61s.64.32,1.26.67.61.36,1.24.71.5.56,1.12.91c.15.08.29.15.23.31-.35.93-.92.88-.56,1.81.26.66.57.22,1.28.22s.71-.04,1.43-.04.72-.23,1.43-.23.72.06,1.43.06.72.05,1.43.05c.16,0,.36-.06.44-.2.3-.56.11-.66.41-1.22.3-.56.33-.55.63-1.11s.33-.55.63-1.11c.09-.17.56-.19.64-.02.27.56.08.65.35,1.2s.2.59.47,1.15.43.48.7,1.04c.07.15.16.28.32.28.75,0,.75-.16,1.5-.16s.75.18,1.5.18.75-.06,1.5-.06c.19,0,.28-.17.2-.33-.3-.6-.15-.68-.45-1.27s-.32-.59-.62-1.18c-.17-.34-.23-.65-.05-.98.15-.27.16-.74.37-1.18.16-.34.35-.7.52-1.1.16-.36.39-.71.54-1.11s.43-.73.54-1.12,0-.83.07-1.22.04-.81.09-1.2c.05-.43.14-.82.16-1.19.03-.49-.01-.9-.01-1.19Z"/><path class="cls-1" d="M26.02,7.65c-.62-.04-1,.1-1.27.45-.33.41-.34.96-.37,1.37-.12.66-.33,1.17-.41,1.62-.11.63-.31,1.08-.49,1.57-.07.52-.27.95-.66,1.11-.42.17-1,.18-1.38-.02s-.61-.67-.56-1.2c.04-.39.09-.87.11-1.4.02-.44.04-.92.03-1.4s-.04-.94-.08-1.41-.06-.97-.15-1.41c-.11-.49-.3-.94-.48-1.33-.22-.48-.52-.85-.88-1.07-.5-.31-.93-.34-1.29-.24-.44.13-.76.47-.98.87-.28.48-.33.99-.26,1.26.1.39.27.73.43,1.1s.25.75.4,1.14c.13.35.12.75.17,1.17.05.36.14.74.1,1.18-.05.52-.27.87-.39,1.19-.2.54-.39.76-.68.92-.45.24-.89.43-1.2.39-.41-.06-.74-.46-.94-.85-.16-.33-.03-.79-.1-1.21s-.21-.8-.25-1.16c-.05-.47-.09-.94-.25-1.32-.18-.42-.6-.69-.88-1.01-.3-.33-.52-.78-.89-1s-.85-.33-1.28-.43-.89-.21-1.33-.21-.93.06-1.34.18c-.44.12-.81.43-1.16.68-.37.26-.78.53-.99.91s-.26.85-.27,1.32c0,.5-.06.91-.15,1.27-.13.5-.2.96-.48,1.21-.32.28-.8.2-1.27.21-.39,0-.77-.07-1.23-.21-.38-.12-.96-.24-1.38-.43-.25.34-.19.6,0,.98.28.57.58.36,1.03.82s.24.74.82.99.65-.1,1.28-.09.67.33,1.28.15c.69-.2.53-.52,1.14-.9s.74-.15,1.14-.74c.42-.62.24-.65.38-1.38s-.28-1,.26-1.52c.49-.48.81-.4,1.44-.14.5.21.24.54.52,1s.61.36.73.89c.14.63-.16.68-.2,1.33-.04.65-.22.64-.26,1.29s.05.66.01,1.31.19.67.15,1.32-.12.65-.18,1.31c-.07.75-.15.66.57,1.32.1.48.24.95.15,1.32-.11.45-.41.85-.7,1.15-.31.33-.81.39-1.18.55-.49.21-.9.24-1.19.2-.47-.07-.87-.13-1.24-.24-.45-.13-.96-.05-1.29-.24-.4-.23-.52-.73-.78-1.04s-.44-.65-.59-1.07c-.14-.38-.48-.73-.55-1.17-.07-.47.02-.97-.2-1.25-.25-.33-.7-.26-1.18-.22-.33.03-.67.04-1.12.3-.28.43-.23.45-.4.93s-.37.45-.33.96c.05.64.17.62.43,1.21s.26.59.52,1.18c.26.59.1.72.5,1.22.46.58.63.44,1.22.91.58.47.7.32,1.28.79s.47.61,1.1,1.02c.58.38.61.32,1.24.63s.59.38,1.22.69.79.04,1.17.63c.3.46.06.48-.01,1.02s-.43.59-.24,1.1c.24.64.3.84.94,1.1s.7-.24,1.36-.27.67.21,1.33.17.65-.29,1.31-.33.66-.1,1.32-.14.67.02,1.33-.02c.66-.04.87.52,1.4.12.59-.43.24-.76.53-1.43s-.17-1.27.53-1.5c.55-.18.3.68.64,1.14.33.47.53.33.87.79s-.04.91.49,1.14c.59.26.7-.2,1.34-.24s.64-.11,1.29-.15.78.41,1.32.05c.6-.4-.38-.58-.72-1.3-.2-.42-.31-.94-.47-1.38-.23-.62-.32-1.08-.17-1.31.16-.26.3-.77.71-1.53.22-.4.44-.88.69-1.51.13-.33.22-.74.31-1.22.07-.4.25-.81.31-1.26.06-.42.22-.84.28-1.27s.1-.87.17-1.28c.08-.46-.03-.95.09-1.31.14-.46.29-.81.3-1.18,0-.43-.14-.82-.16-1.23-.02-.38.19-.78.28-1.23.09-.47-.02-.94.04-1.34.07-.49.11-.92.14-1.31.04-.52.19-.95.16-1.32-.04-.58-.09-1.03-.25-1.32-.27-.49-.74-.47-1.15-.49Z"/><path class="cls-3" d="M20.46,26.63c.47.02.97.08,1.41.19.45.12.44.8,0,.91-.32.09-.58.06-.86.05-.27-.05-.55-.1-.8-.24-.44-.23-.24-.94.26-.92h0Z"/><path class="cls-3" d="M21.12,28.27c.41,0,.93,0,1.4.07.51.07.5.84,0,.91-.49.05-2.09.07-1.81-.75.08-.16.24-.24.41-.23h0Z"/><path class="cls-3" d="M10.06,26.93c.98-.17,1.82-.88,2.92-1.05.67-.11,1.22,0,1.78.07.52.17,2.02.12,1.88.88-.06.18-.23.29-.41.27-.94-.03-2.1-.11-2.97.11-1.01.25-2.02.86-3.2.77-.63-.05-.62-1.01,0-1.06h0Z"/><path class="cls-3" d="M10.15,28.76c1.05-.36,1.91-.77,3.04-.96.28-.03.54.17.57.46.02.18-.06.35-.19.46-.92.71-2.19,1.19-3.39.93-.44-.1-.46-.76-.03-.89h0Z"/><path class="cls-2" d="M19.04,1.98c.24,0,.47.03.7.06.43.06.86.17,1.22.42.35.24.75.52.97.91.23.4.32.89.5,1.31.19.42.51.8.66,1.24.14.44.09.94.19,1.39.1.45.16.91.21,1.37.05.46,0,.92.01,1.38,0,.47-.02.92-.07,1.37-.05.46-.05.93-.16,1.37-.03.11,0,.21.15.28.05.02.09.03.12.03.09,0,.15-.06.18-.14.2-.42.45-.85.59-1.33.13-.44-.02-.97.05-1.46.06-.46.31-.92.32-1.42.01-.46-.1-.95-.13-1.45-.02-.39.13-.75.26-1.1.13-.36.34-.64.61-.92.26-.27.55-.44.92-.58.38-.13.73-.34,1.08-.34.03,0,.07,0,.1,0,.42.05.85.21,1.19.43.34.22.45.68.66,1.03.2.34.39.67.41,1.09.03.44.21.87.21,1.3,0,.44-.16.88-.18,1.3-.03.44.12.89.07,1.32-.06.44-.18.87-.27,1.28-.09.43-.44.78-.57,1.19-.13.42-.24.83-.4,1.22-.17.4-.15.89-.36,1.27-.15.27-.48.49-.47.8,0,.29.04.7.01,1.19-.02.36-.11.76-.16,1.19-.04.38-.01.79-.09,1.2-.07.39.03.83-.07,1.22-.11.39-.4.74-.54,1.12-.14.4-.38.74-.53,1.11-.17.4-.36.76-.52,1.1-.21.44-.22.9-.37,1.18-.18.33-.12.64.05.98.3.6.32.59.62,1.18s.15.68.45,1.27c.08.17-.01.33-.2.33-.75,0-.75.06-1.5.06s-.75-.18-1.5-.18-.75.16-1.5.16c-.16,0-.25-.14-.32-.28-.27-.56-.43-.48-.7-1.04s-.2-.59-.47-1.15c-.27-.56-.08-.65-.35-1.2-.04-.08-.16-.12-.29-.12-.15,0-.3.05-.35.14-.3.56-.33.55-.63,1.11-.3.56-.33.55-.63,1.11-.3.56-.11.66-.41,1.22-.08.14-.27.2-.44.2-.72,0-.72-.05-1.43-.05s-.72-.06-1.44-.06-.71.23-1.43.23-.71.04-1.43.04c-.41,0-.68.15-.89.15-.16,0-.28-.08-.39-.36-.36-.93.21-.87.56-1.81.06-.16-.08-.23-.23-.31-.62-.35-.5-.56-1.12-.91-.62-.35-.61-.36-1.24-.71-.62-.35-.64-.32-1.26-.67-.62-.35-.67-.26-1.29-.61-.38-.22-.79-.41-1.12-.69-.33-.28-.47-.75-.75-1.08-.28-.33-.78-.52-1-.9-.21-.38-.19-.87-.34-1.29-.14-.4-.37-.8-.44-1.23-.07-.42.03-.86.03-1.31s-.01-.88.18-1.24c.2-.38.47-.75.82-1,.34-.24.78-.45,1.21-.5.04,0,.08,0,.12,0,.36,0,.74.2,1.13.33.55.18,1.07.44,1.37.9.29.46.43,1.05.45,1.61.02.51.25.94.6,1.34.31.36.63.87,1.23.95.04,0,.08,0,.12,0,.4,0,.74-.24,1.05-.34.4-.13.75-.28.99-.57.26-.3.46-.66.54-1.04.08-.42-.03-.9.03-1.38.05-.45.31-.9.34-1.34.04-.49.02-.96.03-1.36.04-.79-.13-1.35-.13-1.37.02-.47.2-.9.16-1.31-.05-.47-.31-.85-.45-1.22-.17-.44-.17-.96-.45-1.26-.46-.49-1.17-.57-1.79-.57-.43,0-.76.12-1.08.3-.36.2-.64.44-.84.75-.23.36-.33.73-.33,1.08,0,.52-.14,1.04-.4,1.45-.27.42-.72.72-1.17.93-.39.19-.84.4-1.31.4-.05,0-.11,0-.16,0-.47-.05-.85-.41-1.21-.68-.36-.27-.78-.56-.97-.97-.19-.4-.28-.91-.26-1.37.02-.42.26-.83.35-1.25.09-.41.28-.79.45-1.18.16-.39.14-.88.37-1.25.23-.36.61-.62.9-.94.28-.32.59-.61.93-.88.33-.27.6-.64.98-.85.37-.21.77-.41,1.18-.55.4-.14.85-.12,1.29-.19.41-.07.84-.16,1.28-.16.41,0,.81.13,1.22.2.41.07.83.06,1.22.2.39.13.78.28,1.15.48.36.19.75.37,1.08.62.33.25.53.64.82.94.27.28.53.61.8,1,.23.33.45.7.65,1.11.18.37.33.76.47,1.2.13.39.27.8.35,1.25.08.4.17.83.2,1.28.02.31.02.49.2.5,0,0,0,0,0,0,.17,0,.27-.29.32-.46.12-.43.09-.95.1-1.49,0-.47,0-.97-.1-1.49-.08-.47-.16-.98-.34-1.46-.17-.45-.49-.85-.75-1.29-.27-.45-.48-.99-.46-1.49.02-.5.28-1.03.57-1.45.28-.4.69-.78,1.19-.98.2-.08.41-.11.62-.11M19.04,0c-.5,0-.95.08-1.37.26-.8.33-1.53.92-2.06,1.67-.19.28-.41.63-.58,1.03-.19-.11-.38-.21-.54-.29l-.23-.12c-.51-.27-1.01-.46-1.44-.61-.47-.16-.92-.21-1.24-.24-.1-.01-.2-.02-.3-.04-.1-.02-.2-.04-.29-.06-.34-.07-.76-.17-1.26-.17-.55,0-1.05.09-1.45.15l-.16.03c-.11.02-.21.03-.32.03-.34.03-.81.07-1.3.24-.48.17-.96.4-1.5.7-.47.26-.8.6-1.05.84-.07.07-.14.14-.21.2-.45.37-.83.73-1.16,1.11-.06.07-.14.14-.21.2-.25.23-.59.54-.87.99-.32.52-.43,1.04-.49,1.38-.01.07-.02.13-.04.2l-.09.2c-.15.34-.34.77-.45,1.27-.02.08-.06.17-.09.25-.12.34-.29.79-.31,1.36-.03.78.13,1.59.45,2.28.36.77.95,1.25,1.38,1.57-.48.39-.9.92-1.23,1.54-.41.78-.41,1.54-.41,2.09,0,.18-.01.29-.02.4-.03.36-.06.8.02,1.31.09.52.26.93.41,1.27.04.1.08.19.12.29.02.06.03.14.04.22.06.34.15.86.44,1.38.34.6.81.93,1.12,1.16.03.02.07.05.1.07.02.04.05.09.07.13.17.3.43.77.9,1.16.4.34.82.57,1.15.75l.25.14c.46.26.73.36.93.44.13.05.2.08.39.18.35.19.53.28.7.37.14.07.28.14.55.29.29.16.44.25.58.33.13.08.26.15.48.28-.19.51-.26,1.21.09,2.12.59,1.51,1.86,1.62,2.24,1.62.34,0,.62-.07.8-.12.04,0,.08-.02.12-.03.03,0,.05,0,.08,0,.33,0,.52,0,.71-.02.15,0,.3-.02.61-.02.62,0,1.01-.11,1.33-.21l.07-.02c.3,0,.44.02.58.03.22.02.44.04.88.04.29,0,.44,0,.59.02.21.01.42.03.85.03.94,0,1.78-.48,2.19-1.25.06-.11.1-.2.15-.3.03.04.06.07.09.1.65,1.33,1.72,1.47,2.16,1.47.54,0,.87-.06,1.16-.12.14-.03.17-.04.34-.04.14,0,.15,0,.28.03.31.07.66.15,1.22.15.45,0,.68-.02.91-.04.15-.01.3-.02.59-.02.78,0,1.49-.39,1.9-1.05.41-.66.43-1.47.08-2.16-.01-.03-.03-.06-.04-.08l-.02-.08c-.06-.28-.15-.63-.39-1.11-.16-.32-.25-.48-.34-.64-.04-.07-.08-.15-.13-.24.05-.16.08-.31.11-.43.02-.09.05-.22.07-.27l.11-.21c.15-.3.3-.62.45-.96.05-.11.1-.21.16-.31.13-.24.29-.55.42-.91.03-.06.07-.13.11-.2.15-.26.35-.62.48-1.08.13-.48.12-.91.12-1.22,0-.07,0-.14,0-.2.06-.34.07-.68.08-.96,0-.11,0-.22.02-.33.02-.15.04-.29.06-.43.04-.26.09-.55.1-.86.02-.3.01-.58,0-.81.07-.1.15-.21.22-.34.26-.48.35-.93.41-1.26.01-.07.02-.15.05-.22.15-.35.26-.72.36-1.05l.1-.32s.04-.06.08-.12c.17-.28.42-.7.54-1.24l.08-.34c.08-.33.17-.69.22-1.1.07-.48.01-.9-.03-1.21-.01-.09-.03-.17-.03-.26,0-.1.03-.2.05-.3.06-.3.13-.67.13-1.12,0-.45-.09-.84-.16-1.12-.02-.1-.05-.19-.06-.29-.06-.91-.45-1.58-.69-1.97-.03-.05-.05-.11-.08-.17-.18-.39-.49-1.05-1.2-1.51-.6-.39-1.33-.66-2.04-.74-.11-.01-.22-.02-.33-.02-.66,0-1.19.22-1.54.37-.07.03-.14.06-.21.09-.57.2-1.06.49-1.48.87-.02-.07-.05-.14-.07-.21-.1-.32-.23-.72-.47-1.14-.46-.79-1.16-1.27-1.58-1.56-.58-.39-1.26-.64-2.08-.75-.29-.04-.61-.08-.96-.08h0ZM9.49,10.9s.04-.03.13-.08c.06-.03.08-.04.08-.04.09,0,.17,0,.23,0,.04.16.09.34.16.53.06.17.14.33.22.5.03.07.07.15.1.22,0,.05-.02.1-.03.15-.05.23-.1.52-.12.85,0,.03,0,.07,0,.1,0,.16.02.34.06.5.06.23.08.51.07.78,0,.19,0,.39-.01.6,0,.22,0,.46-.02.71-.01.04-.05.12-.07.21-.09.26-.21.63-.26,1.05-.04.38-.03.71-.02.97,0,.1.01.19,0,.28,0,0,0,0,0,0,0,0-.01,0-.02.03-.04.01-.09.03-.17.06-.06.02-.12.04-.19.07-.02-.03-.05-.06-.07-.09-.1-.12-.13-.18-.13-.18-.02-.63-.17-1.63-.75-2.54-.28-.44-.63-.78-.99-1.04.44-.32.79-.69,1.06-1.11.45-.72.7-1.6.71-2.49,0,0,0,0,0,0,0,0,.01-.02.03-.05,0,0,0,0,0,0h0Z"/><path class="cls-2" d="M15.98,24.1s-.06,0-.09,0c-.55-.05-.95-.53-.91-1.07l.15-1.78.15-3.51-.15-1.66c-.05-.55.36-1.02.91-1.07.55-.04,1.03.36,1.07.9l.15,1.78-.15,3.69-.16,1.82c-.04.52-.48.91-.99.91Z"/><path class="cls-2" d="M19.5,23.56c-.08,0-.17-.01-.25-.03-.53-.14-.85-.68-.71-1.21l.4-1.54.19-1.59.42-1.72s.03-.09.04-.14l.63-1.54c.21-.51.79-.75,1.3-.54.51.21.75.79.54,1.29l-.6,1.47-.38,1.53-.18,1.53s-.01.09-.03.13l-.42,1.6c-.12.45-.52.74-.96.74Z"/><path class="cls-2" d="M22.82,24.26c-.11,0-.23-.02-.34-.06-.52-.19-.78-.76-.59-1.27l.59-1.6s.03-.09.06-.13l.78-1.44.49-1.54.42-1.6c.14-.53.67-.85,1.21-.71.53.14.85.68.71,1.21l-.43,1.66-.53,1.68c-.02.06-.04.11-.07.17l-.79,1.46-.57,1.54c-.15.4-.53.65-.93.65Z"/><path class="cls-3" d="M19.65,10.76c.27,1.01-.22,2.36-1.19,2.84-.19.1-.42.02-.52-.17-.17-.42.48-1,.49-1.45.11-.36.13-.77.21-1.2.08-.53.89-.54,1-.03h0Z"/><path class="cls-3" d="M25.45,11.18c.46,1.15-.12,2.71-1.35,3.1-.33.11-.64-.26-.48-.57.31-.66.67-1.15.9-1.83.08-.22.16-.47.28-.72.11-.28.55-.27.65.01h0Z"/><path class="cls-3" d="M9,24.69c.75-.06,1.82-.1,2.46-.04,0,0,.41.12.41.12.98.59-.84,1.31-1.56,1.18-.52-.06-2.05-.25-1.66-1.08.08-.12.21-.17.34-.18h0Z"/><path class="cls-3" d="M14.72,28.03c.37-.12.74-.14,1.12-.03.37.12.38.67.03.81-.37.13-.77.14-1.15.05-.4-.12-.39-.71,0-.83h0Z"/></svg>
