<?xml version="1.0" encoding="UTF-8"?><svg id="Layer_1" xmlns="http://www.w3.org/2000/svg" width="32" height="32" viewBox="0 0 32 32"><defs><style>.cls-1{fill:#d9d8d7;}.cls-1,.cls-2,.cls-3,.cls-4{stroke-width:0px;}.cls-2{fill:#000;}.cls-3{fill:#969390;}.cls-4{fill:#fff;}</style></defs><path class="cls-4" d="M27.93,16.12c.17-.43.52-.8.67-1.24s.19-.92.32-1.37.32-.88.42-1.34.1-.93.18-1.39.19-.92.25-1.38.2-.93.23-1.38c.04-.47-.2-.95-.18-1.41s.14-.93-.04-1.33-.53-.75-.87-1.03-.76-.4-1.22-.47c-.53-.08-1.08-.23-1.52-.04-.46.2-.88.62-1.16,1.04s-.27.94-.28,1.47c-.01.4-.16.81-.2,1.24-.04.4.08.84.02,1.26s-.16.82-.24,1.23c-.08.41-.4.77-.5,1.17s.09.89-.02,1.29c-.17.59-.36.75-.54.69s0-.26.03-.76c.03-.44.02-.88.01-1.33s-.04-.88-.08-1.32-.03-.89-.11-1.33-.19-.87-.31-1.3-.34-.82-.49-1.24-.33-.82-.51-1.22-.49-.74-.71-1.12-.47-.78-.83-1.04-.83-.29-1.27-.35-.93-.27-1.36-.09c-.49.21-.71.75-.98,1.15s-.55.83-.57,1.33.21.92.47,1.37c.23.39.36.83.52,1.21.18.42.44.8.56,1.2.13.44.1.91.16,1.31.08.46.01.91.03,1.3.02.49.16.93.14,1.29-.02.28-.14.75-.4.77s-.29-.43-.35-.72c-.09-.45-.2-.9-.34-1.34s-.29-.88-.47-1.31-.39-.83-.61-1.25-.4-.83-.66-1.22-.56-.73-.84-1.11-.57-.71-.88-1.07-.62-.67-.95-1.02-.64-.65-.99-.98-.72-.5-1.13-.64-.84-.19-1.27-.14c-.43.05-.86.13-1.22.42-.42.33-.83.71-.99,1.17-.17.48-.12,1.05,0,1.54s.29,1.04.67,1.41c.34.32.67.62.97.94.32.34.85.48,1.13.82.3.36.52.77.77,1.13.27.39.29.9.5,1.28.23.41.5.77.65,1.17.17.44.21.87.29,1.3.12.58.41,1.03.45,1.5s-.18.97-.24,1.54c-.05.45-.05.95-.16,1.54-.07.39-.29.75-.56,1.14-.25.36-.53.64-.9.88s-.72.47-1.17.43c-.56-.06-.94-.28-1.28-.45-.55-.25-.89-.5-1.12-.74-.11-.11-.2-.2-.27-.27-.36-.32-.85-.37-1.29-.46s-.95-.29-1.39-.15-.88.43-1.21.79c-.32.36-.59.85-.68,1.29s0,1,.15,1.44.54.75.9,1.07c.35.29.67.66,1.07.93s.85.42,1.26.66.76.59,1.18.81c.43.23.93.29,1.34.49.46.22.91.38,1.3.56.51.24.89.56,1.22.73.22.11.38.42.29.65-.11.51-.12.51-.21,1.02s-.67.7-.26,1.03c.55.46.73-.17,1.45-.17s.72.13,1.44.13.72.19,1.45.19.73-.09,1.45-.09.73-.22,1.45-.22c.12,0,.19.06.25-.05.29-.54.32-.53.61-1.07s.16-.62.45-1.16.34-.52.63-1.06c.13-.24.46-.14.58.11.26.54.23.55.49,1.09.26.54.28.53.54,1.07s.51.42.77.96c.05.11.03.4.15.4.78,0,.78,0,1.56,0s.78-.26,1.56-.26.78.26,1.56.26c.14,0,.09-.21.03-.33-.33-.66-.25-.7-.58-1.35s-.27-.69-.6-1.34c-.12-.24-.11-.54.05-.75.18-.25.52-.57.81-1.05.2-.34.42-.74.63-1.17.18-.37.39-.77.55-1.21.15-.4.23-.84.35-1.29.11-.41.02-.88.08-1.33.07-.43.22-.85.24-1.3s.03-.87,0-1.32-.02-.88-.11-1.33c0-.01-.16-.05-.15-.06Z"/><path class="cls-1" d="M25.65,6.34c-.63-.04-.91.06-1.09.36-.21.36-.1.85-.13,1.25-.07.37-.27.77-.33,1.2-.06.4-.23.8-.29,1.21-.07.43.02.87-.05,1.25-.09.51-.15.94-.25,1.2-.07.53-.49.84-.88,1-.42.18-.92.14-1.3-.06s-.64-.56-.58-1.09c.04-.4.05-.88.03-1.4-.02-.44,0-.92-.06-1.4s-.19-.92-.29-1.38-.24-.92-.39-1.35c-.16-.47-.37-.89-.59-1.27-.26-.45-.57-.79-.92-1.01-.47-.29-.8-.32-1.09-.26-.4.08-.56.38-.67.79-.13.43-.2.88-.13,1.14.1.39.14.8.31,1.17s.4.68.54,1.07c.13.36.11.75.17,1.17.05.36.08.72.04,1.17-.05.52.15,1,.03,1.32-.2.54-.58.86-.87,1.02-.45.25-.96-.08-1.27-.13-.41-.06-.77-.35-1.12-.91-.27-.42-.42-.96-.63-1.45-.24-.57-.64-1.03-.78-1.4-.17-.46-.15-.97-.34-1.35-.22-.44-.52-.82-.75-1.17-.28-.42-.53-.83-.82-1.13-.36-.37-.76-.68-1.11-.87-.47-.24-1-.21-1.4-.14-.44.08-.93.28-1.2.7-.22.33-.31.85-.38,1.37.24.33.49.69.71.99.4.54.39.44.82.83.7.63.71.6,1.29,1.35.62.81.57.82.85,1.8.17.6-.03.59-.03,1.22s.06.63.06,1.26.17.63.17,1.26-.11.63-.11,1.27.15.64.11,1.27c-.04.76-.23.7.49,1.36.11.52.23,1.02.08,1.47-.15.48-.43,1-.81,1.31s-.93.44-1.44.52c-.46.07-.99.07-1.5-.12-.42-.15-.86-.44-1.28-.8-.37-.32-.66-.64-.97-.83-.45-.28-.87-.27-1.2-.34-.52-.1-.86-.1-1.14.16-.3.28-.66.64-.77,1.04-.17.64-.45.83-.07,1.34.45.59.74.31,1.32.77s.52.55,1.11,1.02.51.56,1.14.97c.59.38.69.17,1.32.49s.6.37,1.23.68.73.19,1.11.78c.3.47-.12.46-.2,1.01s-.32.64-.13,1.15c.24.64.48.55,1.11.81s.61.25,1.27.21.66-.04,1.32-.08.65-.3,1.31-.34.68.22,1.34.18.65-.33,1.31-.37.76.43,1.3.03c.59-.44.34-.62.64-1.29s-.11-1.13.59-1.35c.55-.18.27.53.6.99s.34.47.67.94.16.77.69,1c.59.26.69-.09,1.34-.13s.63-.23,1.28-.27.75.39,1.29.03c.6-.4-.31-.55-.65-1.27-.2-.43-.35-.93-.51-1.37-.23-.62-.3-1.08-.16-1.31.16-.26.36-.74.78-1.5.22-.4.53-.86.78-1.5.13-.33.31-.76.41-1.25.07-.4-.07-.87,0-1.32.06-.42.36-.83.42-1.26s-.13-.91-.06-1.32c.08-.46.11-.92.23-1.29.12-.39.23-.81.26-1.32.03-.44.25-.91.24-1.38s-.12-.94-.11-1.38c0-.52-.15-1.02-.07-1.4.09-.47.42-.85.48-1.24.07-.48-.13-.93-.11-1.31.03-.52.29-.96.24-1.31-.08-.57-.41-.91-.63-1.15-.33-.38-.75-.35-1.14-.37Z"/><path class="cls-2" d="M16.01,23.97s-.06,0-.09,0c-.55-.05-.95-.52-.9-1.07l.15-1.77.15-3.5-.15-1.65c-.05-.54.36-1.02.91-1.07.54-.04,1.03.36,1.07.9l.15,1.77-.15,3.67-.15,1.81c-.04.51-.48.9-.99.9Z"/><path class="cls-2" d="M19.53,23.44c-.08,0-.17-.01-.25-.03-.53-.14-.85-.67-.71-1.2l.4-1.53.19-1.58.42-1.71s.03-.09.04-.14l.63-1.53c.21-.5.79-.74,1.29-.54.51.21.75.78.54,1.29l-.6,1.46-.38,1.52-.18,1.52s-.01.09-.03.13l-.41,1.59c-.11.44-.52.74-.96.74Z"/><path class="cls-2" d="M22.83,24.12c-.11,0-.23-.02-.34-.06-.51-.19-.78-.76-.59-1.27l.59-1.6s.03-.09.06-.13l.77-1.43.49-1.53.42-1.59c.14-.53.67-.84,1.21-.71.53.14.85.68.71,1.2l-.43,1.65-.53,1.67c-.02.06-.04.11-.07.17l-.79,1.45-.57,1.53c-.15.4-.53.64-.93.64Z"/><path class="cls-3" d="M20.48,26.48c.47.02.97.08,1.41.19.45.12.43.8,0,.91-.32.09-.57.06-.86.05-.27-.05-.55-.09-.79-.23-.44-.23-.23-.94.25-.91h0Z"/><path class="cls-3" d="M21.14,28.12c.41,0,.93,0,1.4.07.51.07.5.84,0,.91-.49.05-2.08.07-1.81-.75.08-.16.24-.24.4-.23h0Z"/><path class="cls-3" d="M10.11,26.78c.98-.17,1.82-.87,2.91-1.05.67-.11,1.22,0,1.77.07.52.17,2.02.12,1.88.88-.06.18-.23.29-.41.27-.93-.03-2.1-.11-2.96.11-1,.25-2.01.85-3.19.77-.63-.05-.62-1,0-1.05h0Z"/><path class="cls-3" d="M10.2,28.6c1.04-.36,1.9-.77,3.03-.96.28-.03.54.17.57.45.02.18-.06.35-.19.46-.91.71-2.18,1.18-3.38.93-.44-.1-.46-.75-.03-.88h0Z"/><path class="cls-3" d="M19.68,10.69c.27,1-.22,2.35-1.18,2.83-.19.1-.42.02-.52-.17-.17-.42.48-1,.49-1.44.11-.36.13-.77.21-1.2.08-.53.89-.54,1-.03h0Z"/><path class="cls-3" d="M25.45,11.11c.46,1.15-.12,2.7-1.35,3.09-.33.11-.64-.26-.48-.56.31-.66.66-1.14.9-1.82.08-.22.16-.47.28-.72.11-.28.55-.27.65.01h0Z"/><path class="cls-3" d="M9.05,24.55c.75-.06,1.81-.1,2.46-.04,0,0,.41.12.41.12.98.59-.84,1.31-1.55,1.17-.52-.06-2.05-.25-1.66-1.07.08-.12.21-.17.34-.18h0Z"/><path class="cls-3" d="M14.75,27.88c.37-.11.74-.14,1.11-.03.37.12.38.66.03.8-.37.13-.76.14-1.14.05-.4-.11-.39-.71,0-.82h0Z"/><path class="cls-2" d="M18.02,1.99c.32,0,.66.12.97.16.44.06.9.09,1.27.35.36.25.61.64.83,1.04.22.38.52.72.71,1.12.18.4.36.81.51,1.22.15.41.37.81.49,1.24.12.42.22.86.31,1.3.08.43.07.89.11,1.33.05.44.07.88.08,1.32,0,.44.02.89-.01,1.33-.03.5-.2.71-.03.76.02,0,.04.01.06.01.16,0,.33-.18.47-.7.11-.4-.07-.88.02-1.29.1-.41.42-.77.5-1.17.08-.41.18-.83.24-1.23.06-.42-.05-.86-.02-1.26.04-.43.19-.84.2-1.24.01-.52.01-1.06.28-1.47.28-.42.69-.84,1.16-1.04.16-.07.33-.09.51-.09.32,0,.67.08,1.01.13.46.07.88.19,1.22.47.34.28.69.62.87,1.03.17.4.05.88.04,1.33-.02.45.22.93.18,1.41-.04.46-.18.91-.24,1.38-.06.46-.16.91-.24,1.38-.08.46-.08.93-.18,1.39-.1.45-.3.89-.42,1.34-.12.45-.17.93-.32,1.37-.15.44-.5.81-.67,1.24,0,.01.15.05.15.06.09.45.07.9.11,1.33.04.45.02.89,0,1.32-.02.45-.17.87-.24,1.3-.07.45.03.92-.08,1.33-.12.44-.2.89-.35,1.29-.16.44-.37.84-.55,1.21-.21.44-.43.84-.63,1.17-.29.48-.63.8-.81,1.05-.16.22-.17.51-.05.75.33.66.27.69.6,1.34.33.66.25.7.58,1.35.06.13.12.33-.03.33-.78,0-.78-.26-1.56-.26s-.78.26-1.56.26-.78,0-1.56,0c-.13,0-.1-.28-.15-.4-.26-.54-.51-.42-.77-.96-.26-.54-.28-.53-.54-1.07-.26-.54-.23-.55-.49-1.09-.07-.15-.22-.25-.36-.25-.09,0-.17.04-.22.14-.29.55-.34.52-.63,1.06-.29.55-.16.62-.45,1.16-.29.54-.32.53-.61,1.07-.03.05-.06.06-.09.06-.04,0-.09-.02-.16-.02-.73,0-.73.22-1.45.22s-.73.09-1.45.09-.72-.19-1.45-.19-.72-.13-1.45-.13c-.53,0-.76.34-1.07.34-.11,0-.23-.04-.38-.17-.4-.33.17-.52.26-1.03.09-.51.1-.51.21-1.02.09-.23-.08-.54-.29-.65-.32-.17-.71-.49-1.22-.73-.39-.18-.84-.34-1.3-.56-.41-.2-.91-.26-1.34-.49-.41-.22-.76-.56-1.18-.81-.41-.24-.87-.4-1.26-.66-.4-.27-.71-.64-1.07-.93-.36-.32-.75-.64-.9-1.07-.15-.44-.24-.98-.15-1.44.09-.45.35-.93.68-1.29.32-.36.78-.64,1.21-.79.11-.04.23-.05.34-.05.34,0,.7.13,1.04.2.44.09.93.14,1.29.46.07.06.16.16.27.27.23.23.57.48,1.12.74.35.16.73.39,1.28.45.04,0,.07,0,.11,0,.4,0,.72-.22,1.06-.43.37-.23.65-.51.9-.88.26-.39.48-.75.56-1.14.12-.6.12-1.1.16-1.54.06-.57.28-1.05.24-1.54-.04-.48-.33-.93-.45-1.5-.09-.43-.13-.87-.29-1.3-.16-.4-.43-.76-.65-1.17-.21-.38-.23-.89-.5-1.28-.25-.36-.48-.77-.77-1.13-.28-.34-.81-.48-1.13-.82-.3-.32-.63-.62-.97-.94-.38-.37-.56-.93-.67-1.41-.12-.49-.17-1.06,0-1.54.16-.46.56-.84.99-1.17.36-.29.79-.37,1.22-.42.12-.02.25-.02.37-.02.3,0,.6.05.9.16.41.15.81.33,1.13.64.34.33.67.65.99.98.33.34.66.67.95,1.02.31.36.61.71.88,1.07.28.38.6.73.84,1.11.26.4.45.82.66,1.22.22.41.43.83.61,1.25.18.43.33.87.47,1.31.14.44.24.89.34,1.34.06.29.09.73.33.73,0,0,.01,0,.02,0,.26-.02.38-.49.4-.77.03-.36-.11-.8-.14-1.29-.02-.4.05-.84-.03-1.3-.07-.4-.03-.87-.16-1.31-.12-.4-.38-.78-.56-1.2-.17-.38-.29-.82-.52-1.21-.27-.45-.49-.88-.47-1.37.02-.5.28-.92.57-1.33.27-.4.49-.94.98-1.15.13-.05.26-.07.39-.07M18.02,0h0C17.6,0,17.2.08,16.84.24c-.96.41-1.44,1.19-1.72,1.66-.04.07-.08.13-.12.2-.16.24-.41.59-.6,1.04-.08-.09-.16-.17-.25-.26l-.25-.26c-.33-.35-.68-.7-1.05-1.05-.62-.6-1.31-.9-1.84-1.09-.51-.18-1.04-.28-1.58-.28-.2,0-.41.01-.61.04-.44.05-1.37.17-2.21.83-.58.46-1.3,1.12-1.63,2.08-.27.79-.29,1.68-.05,2.66.18.73.48,1.66,1.24,2.38l.16.15c.26.24.5.47.73.71.35.38.75.6,1.01.75.04.02.07.04.11.06.1.13.2.29.3.45.09.13.17.26.26.39.02.06.04.13.06.19.07.26.17.61.37.97.1.18.2.35.31.52.1.15.2.33.24.41.05.13.08.32.12.55.03.15.05.3.08.44.09.42.22.78.32,1.04.03.08.06.15.09.23-.01.07-.04.18-.06.26-.06.25-.13.55-.17.91-.02.15-.03.31-.04.48-.02.3-.04.59-.1.89,0,0-.05.11-.25.4-.11.17-.21.25-.31.31l-.06.04s-.03.02-.05.03c-.06-.03-.13-.06-.23-.11l-.22-.1c-.36-.17-.5-.29-.54-.33l-.06-.06c-.12-.12-.23-.23-.31-.3-.72-.64-1.55-.8-2.05-.89l-.16-.03c-.07-.01-.15-.03-.22-.05-.31-.08-.73-.19-1.22-.19-.34,0-.67.05-.98.16-.77.26-1.52.75-2.06,1.34-.57.63-.99,1.45-1.15,2.23-.19.93.01,1.85.21,2.46.3.9.94,1.47,1.37,1.85l.09.08.03.02.03.02c.1.08.2.18.3.27.24.23.54.52.92.78.35.24.7.4.98.53.13.06.27.12.39.2.13.07.24.17.36.25.24.18.54.41.9.6.4.21.78.33,1.08.42.11.03.27.08.32.1.29.14.58.26.86.38.16.07.32.13.46.2.06.03.12.06.18.1-.89,1.41-.16,2.58.44,3.08.62.51,1.24.62,1.65.62.57,0,1-.2,1.25-.33.06,0,.11.01.18.03.28.05.58.1,1.08.1q.11,0,.23.03c.31.08.65.16,1.22.16.48,0,.75-.03.96-.06.12-.01.25-.03.49-.03.61,0,1-.1,1.31-.2l.06-.02c.08,0,.16.01.23.01.78,0,1.49-.43,1.86-1.12.09-.18.15-.28.21-.37.1.11.19.2.27.28.38,1.16,1.39,1.48,1.98,1.48h.79s.77,0,.77,0c.66,0,1.08-.12,1.42-.24l.08-.03s.02,0,.04,0h.02s.06,0,.08,0l.07.02c.34.11.75.23,1.41.23.73,0,1.39-.37,1.77-.98.41-.66.42-1.47.03-2.24-.11-.21-.14-.3-.19-.44-.09-.26-.18-.5-.39-.91-.13-.25-.18-.38-.23-.51-.01-.03-.02-.05-.03-.08.14-.18.3-.4.45-.65.25-.41.48-.86.71-1.33l.11-.23c.16-.33.35-.71.51-1.15.14-.39.24-.77.32-1.11.03-.12.06-.24.09-.36.13-.49.12-.93.12-1.25,0-.1,0-.19,0-.29.02-.11.05-.22.07-.34.07-.32.17-.71.19-1.18.02-.48.03-1-.01-1.56,0-.11-.01-.22-.02-.34,0-.21-.02-.44-.04-.7.13-.22.27-.49.38-.8.13-.37.19-.72.25-1.02.03-.15.06-.3.1-.45.04-.15.1-.3.15-.45.1-.29.21-.61.3-.99.08-.37.12-.72.15-1.02.01-.15.03-.31.05-.46.03-.16.06-.31.09-.47.07-.33.13-.67.17-1,.02-.16.05-.32.09-.47.06-.29.13-.62.16-.99.05-.55-.06-1.01-.13-1.35-.01-.07-.03-.13-.04-.2,0-.07.01-.13.02-.2.05-.47.11-1.18-.22-1.95-.35-.82-.95-1.38-1.43-1.78-.76-.63-1.61-.82-2.19-.9l-.23-.04c-.3-.05-.68-.12-1.09-.12-.47,0-.91.09-1.31.26-.93.4-1.58,1.14-1.92,1.62-.14-.26-.3-.48-.43-.67-.07-.1-.15-.2-.21-.31-.34-.6-.74-1.21-1.42-1.68-.73-.51-1.48-.61-1.99-.67l-.15-.02c-.07,0-.13-.03-.2-.04C18.8.08,18.44,0,18.02,0h0Z"/></svg>
