<?xml version="1.0" encoding="UTF-8"?><svg id="Layer_1" xmlns="http://www.w3.org/2000/svg" width="32" height="32" viewBox="0 0 32 32"><defs><style>.cls-1{fill:#d9d8d7;}.cls-1,.cls-2,.cls-3,.cls-4{stroke-width:0px;}.cls-2{fill:#000;}.cls-3{fill:#969390;}.cls-4{fill:#fff;}</style></defs><path class="cls-4" d="M29.85,13.62c.02.48.29.96.2,1.39-.1.47-.45.85-.64,1.24-.22.44-.35.94-.64,1.23-.17.18-.31.33-.3.58.02.54-.05,1.05-.08,1.52-.04.54-.23,1.02-.32,1.49-.1.54-.03,1.08-.19,1.52-.19.53-.52.94-.75,1.34-.29.51-.68.84-.97,1.16-.64.7-.47.58-1.03,1.1-.08.3-.21.64-.07.91.31.61.42.56.73,1.17s.41.57.72,1.18c.1.19-.12.58-.34.58-.73,0-.73-.12-1.46-.12s-.73-.03-1.47-.03-.73-.07-1.47-.07c-.22,0-.35-.06-.45-.26-.33-.68-.39-.65-.71-1.33-.33-.68-.3-.69-.63-1.37-.19-.4-.92-.45-1.14-.06-.38.7-.33.73-.71,1.43-.38.7-.25.77-.63,1.47-.08.15-.3.31-.47.31-.85,0-.85-.13-1.7-.13s-.85.11-1.71.11-.86-.18-1.71-.18-.86.19-1.71.19c-.32,0-.16-.27-.07-.47s.27-.69.53-1.39c.07-.19-.1-.33-.35-.48-.58-.35-1.1-.65-1.61-.88-.62-.28-1.17-.51-1.71-.7-.64-.23-1.22-.4-1.74-.62-.48-.2-.92-.51-1.3-.82s-.61-.8-.89-1.21-.52-.84-.69-1.31-.35-.94-.4-1.44-.17-1.02-.11-1.51.47-.91.66-1.37c.17-.43.13-.99.41-1.36.28-.39.77-.61,1.13-.9s.75-.57,1.19-.75.9-.26,1.37-.33c.31-.05.6-.19.93-.19.02.02.51.46.97.97.33.37.64.79.86,1.03.21.22.49.53.4,1.17s-.54.97-.88,1.3c-.42.41-.88.7-1.3.84-.41.13-.36.51.02.55.49.04,1.07.05,1.61-.06s1.11-.27,1.53-.56c.44-.3.62-.84.74-1.38.08-.33.03-.61.04-.87.03-.59.05-1.13-.21-1.62s-.55-1-.94-1.43-.94-.7-1.31-1.1c-.39-.43-.81-.83-1.2-1.25s-.81-.82-1.2-1.25c-.4-.43-.72-.94-1.16-1.39-.41-.42-.83-.86-1.27-1.3-.42-.41-.85-.84-1.31-1.27-.48-.45-.9-1.03-1-1.64s.15-1.27.53-1.82c.31-.45.66-.85,1.12-1.05.48-.2,1.03-.17,1.54-.09s1.08.18,1.48.54c.42.4.65.98,1.05,1.37.42.41.79.83,1.18,1.22.41.42.81.82,1.19,1.21.49.51.94,1,1.39,1.49.28.31.66.51.93.8.28.31.58.58.84.87.44.5.85.99,1.25,1.41.12.13.11.38.23.52.13.14.42.16.55.3.15.19.58.82,1.09,1.54.35.5.83,1.01,1.13,1.52.18.3.33.25.34-.07,0-.45-.18-.91-.32-1.42-.13-.45-.3-.89-.52-1.35-.2-.44-.21-.99-.46-1.42s-.51-.86-.79-1.26c-.3-.42-.81-.65-1.12-1.01-.39-.46-.02-.23-.47-.72.57-.46,1.01-.69,1.48-.86.55-.19,1.08-.38,1.74-.36.41.01.85.27,1.31.4s.93.25,1.27.43c.35.18.79.32,1.12.57s.57.66.82.95c.3.34.49.75.71,1.15s.48.76.62,1.2.12.88.18,1.34c.06.49.37.96.36,1.46s-.05,1-.12,1.49c-.07.4.11.58.35.18.16-.26.43-.5.55-.84.2-.58.4-1.23.47-1.93.06-.47.05-.93.06-1.36.02-.47-.19-.89-.28-1.32s-.12-.89-.37-1.31c.41-.11,1.07-.08,1.74.11.5.14.97.47,1.47.84.46.35.97.57,1.29.95.36.43.7.88.89,1.34.2.5.06,1.06.09,1.59Z"/><path class="cls-1" d="M27.66,12.96c-.19-.46-.41-.92-.77-1.28-.33-.33-.77-.6-1.25-.83-.42-.2-.96-.38-1.49-.5,0,.48,0,1.04.03,1.49.03.51.1.99.11,1.42.01.57.02,1.06-.11,1.4-.06.45-.1.92-.31,1.19-.29.37-.82.46-1.17.39-.32-.07-.58-.36-.74-.87-.11-.36-.3-.79-.46-1.28-.13-.41-.29-.84-.46-1.28s-.28-.88-.48-1.28c-.22-.43-.51-.8-.77-1.13-.31-.4-.59-.86-.96-1.02-.44-.18-.93-.27-1.37-.31-.46-.04-.96-.01-1.4.13-.41.14-.87.43-1.23.76.13.24.64.59.97,1.07.23.34.51.71.76,1.1s.47.8.66,1.18c.22.44.3.93.36,1.31.09.51-.13.82-.5,1.08-.43.3-.78.38-1.24.28-.42-.09-.97-.07-1.39-.39-.35-.27-.52-.79-.86-1.16-.31-.34-.78-.57-1.07-.95s-.41-.88-.68-1.26c-.29-.41-.54-.82-.78-1.18-.32-.47-.81-.71-1.03-.99-.31-.4-.51-.86-.82-1.21-.34-.39-.57-.84-.89-1.17-.36-.37-.81-.61-1.16-.9-.41-.35-.72-.76-1.09-.99-.48-.31-1-.37-1.4-.48-.57-.15-1.09-.16-1.43.15-.28.26-.42.76-.49,1.37.24.33.48.66.7.96.4.54.16.66.6,1.06.71.63,1.11.24,1.69.98.63.8.16,1.1.73,1.94.43.62.52.56,1.07,1.08s.64.43,1.19.96.56.51,1.05,1.09c.4.47.21.49.5,1.11.17.36.5.68.7,1.05.24.43.5.8.72,1,.19.48.19,1,.16,1.4-.04.48-.35.84-.62,1.18s-.55.76-.96.95-.91.17-1.35.2c-.48.03-1,.13-1.38-.06-.41-.2-.7-.63-.81-1.1-.09-.37,1.13-1.06,1.53-1.18.46-.13.93-.2,1.23-.44.35-.29.64-.69.78-1.07s-.02-.86-.08-1.29c-.06-.41,0-.9-.22-1.28-.21-.35-.52-.73-.87-1-.32-.25-.81-.33-1.24-.47-.39-.13-.81-.05-1.27-.06-.4,0-.79-.1-1.25,0,.23.35.6.67.82,1.08s.33.91.36,1.35-.12.87-.44,1.28c-.23.3-.65.47-1.13.76-.45.26-.81.65-1.07,1.01-.29.39-.35.9-.47,1.35s-.3.93-.31,1.39c0,.51-.04,1.02.03,1.45.13.81,0,.82.5,1.33.67.69.71.65,1.55,1.13.69.39.66.46,1.41.72.75.26.81.1,1.56.36s.91.03,1.42.63c.35.42.09.5.02,1.05s-.51.58-.32,1.09c.24.64.36.7,1,.96.62.25.66,0,1.33-.03s.66-.1,1.32-.13.66-.09,1.33-.12.67.06,1.34.02.67.04,1.34,0c.67-.04.72.13,1.26-.26.6-.43.31-.6.61-1.26s-.05-1.09.66-1.32c.55-.18.26.54.59,1s.33.47.67.93c.34.47.29.5.82.73.6.26.59.14,1.24.1.65-.04.64-.22,1.29-.26s.83.51,1.37.15c.61-.4-.34-.68-.68-1.39-.2-.42-.38-.91-.54-1.35-.23-.62-.56-1.22-.41-1.45.17-.25.58-.6,1-1.36.22-.4.36-.92.61-1.55.14-.36.38-.73.52-1.17.13-.39.26-.8.37-1.22s.15-.83.22-1.25.21-.84.21-1.25c0-.24.15-.45.31-.63.32-.36.49-.74.67-1.09.21-.41.27-.8.31-1.2.05-.43.07-.82-.02-1.24s-.16-.82-.33-1.23Z"/><path class="cls-2" d="M16.45,24.96c-.48,0-.9-.34-.99-.81-.05-.3-.11-.45-.16-.6-.09-.23-.17-.46-.26-.93-.08-.42-.1-.63-.13-.84-.02-.18-.04-.36-.11-.72-.07-.4-.1-.6-.14-.8-.03-.19-.06-.38-.13-.75-.07-.41-.1-.62-.13-.82-.02-.18-.05-.37-.11-.73-.1-.54.27-1.05.81-1.15.55-.1,1.07.26,1.16.8.07.41.1.62.13.83.02.18.05.37.11.73.07.4.1.6.14.8.03.19.06.38.13.75.08.42.1.63.13.84.02.18.04.36.11.72.05.3.11.45.17.6.08.23.17.46.26.93.1.54-.27,1.05-.81,1.15-.06.01-.12.02-.18.02Z"/><path class="cls-2" d="M20.07,24.6s-.09,0-.14,0c-.55-.08-.93-.58-.85-1.12.06-.44.13-.66.2-.87.04-.14.09-.27.13-.56.04-.26.03-.4.02-.54-.01-.21-.03-.47.04-.93.07-.46.15-.7.22-.9.05-.13.09-.26.13-.52.04-.3.05-.45.05-.61,0-.21,0-.43.07-.85.08-.54.58-.92,1.13-.84.55.08.93.58.85,1.12-.04.3-.05.45-.05.61,0,.21,0,.42-.07.84-.07.46-.15.7-.22.9-.05.13-.09.26-.13.52-.04.26-.03.4-.02.54.01.21.03.47-.04.93-.06.44-.13.66-.2.87-.04.14-.09.27-.13.56-.07.49-.5.85-.99.85Z"/><path class="cls-2" d="M23.63,25.28c-.1,0-.2-.01-.3-.04-.53-.16-.82-.72-.66-1.24.1-.3.13-.46.16-.62.04-.2.08-.41.21-.8.07-.24.08-.33.09-.49.01-.22.03-.49.18-.96.12-.38.2-.57.27-.76.06-.15.12-.31.22-.62.14-.44.27-.67.37-.85.07-.12.13-.24.21-.5.16-.52.73-.81,1.25-.65.53.16.82.72.66,1.24-.14.44-.27.67-.37.85-.07.12-.13.24-.21.5-.12.38-.2.57-.27.76-.06.15-.12.31-.22.62-.08.24-.08.33-.09.49-.01.22-.03.49-.18.96-.1.3-.13.46-.16.62-.04.2-.09.41-.21.8-.13.42-.53.69-.96.69Z"/><path class="cls-3" d="M19.56,27.26c.58-.15,1.2-.04,1.75-.22.4-.21,1.3-.32,1.27.35-.02.21-.18.37-.37.42-.98.45-1.55.48-2.62.39-.55-.05-.57-.87-.03-.95h0Z"/><path class="cls-3" d="M20.49,28.49c.9-.19,1.51-.16,2.38-.18.43.04,1.16-.08,1.14.53-.06.56-.77.44-1.18.45-.67.02-1.42.01-2.09-.04-.52.07-.76-.56-.26-.76h0Z"/><path class="cls-3" d="M9.5,26.91c1.33-.01,1.91-.17,3.23-.49.5-.04,1.16-.09,1.65-.11.56-.02.94-.2,1.57-.37.21-.06.44.06.5.27.05.18-.03.37-.2.46-.45.28-1.05.64-1.61.75-.42.11-1.27.29-1.7.36-.45.07-1.01.28-1.7.32-.67.03-1.25-.07-1.77-.13-.62-.06-.6-1.01.01-1.05h0Z"/><path class="cls-3" d="M9.73,28.58c1.17-.28,2.83-.09,3.87.08.45.05.56.68.17.88-1.37.55-2.72.25-4.08-.1-.42-.13-.38-.77.04-.86h0Z"/><path class="cls-3" d="M10.07,25.66c1.01-.8,2.27-1.21,3.55-.92.41.13.41.73.02.87-.92.37-2.19.63-3.22.76-.39.06-.64-.46-.35-.72h0Z"/><path class="cls-3" d="M14.76,28.58c.21-.17.75-.52,1.11-.61.4-.11.7.41.42.69-.48.39-.76.73-1.53.74-.46-.07-.09-.6,0-.83h0Z"/><path class="cls-2" d="M4.13,1.98c.33,0,.67.08.99.14.5.09.95.25,1.35.62.43.4.81.82,1.21,1.21.42.41.97.66,1.36,1.05.41.42.81.82,1.19,1.21.49.51.86,1.09,1.3,1.57.28.31.48.67.74.96.28.31.63.54.89.83.44.5.78,1.05,1.18,1.48.12.13.43.09.55.22.13.14.08.45.22.6.15.19.76.69,1.26,1.41.35.5.64,1.12.95,1.64.07.12.18.17.28.17.15,0,.3-.12.3-.31,0-.45-.37-.9-.51-1.4-.12-.45-.22-.92-.43-1.38-.2-.44-.36-.9-.61-1.33-.25-.43-.45-.89-.73-1.29-.3-.42-.61-.81-.92-1.16-.39-.46-.24-.13-.69-.61.57-.46,1.04-.82,1.51-.99.5-.17,1.02-.25,1.61-.25.06,0,.12,0,.18,0,.41.01.89.18,1.34.31.46.14.92.32,1.26.5.34.18.67.48,1.01.74.34.26.62.58.87.87.3.34.48.74.71,1.14.22.39.63.7.77,1.14.14.42.06.9.12,1.37.06.49.23.97.22,1.46-.01.49-.25.96-.32,1.44-.05.27.25.52.52.52.12,0,.24-.05.32-.18.16-.26.3-.59.42-.93.2-.58.11-1.28.18-1.97.06-.47.33-.91.35-1.34.02-.47-.07-.93-.15-1.36-.08-.43-.35-.86-.59-1.28.09-.02.2-.03.31-.03.4,0,.9.13,1.42.27.5.14,1.15.16,1.65.53.46.35.87.73,1.18,1.11.36.43.48.98.67,1.44.2.5.33.99.36,1.51.02.48.09.95,0,1.37-.1.47-.31.89-.5,1.28-.22.44-.49.83-.77,1.13-.17.18-.3.41-.29.66.02.54-.06,1.04-.09,1.51-.04.54-.05,1.04-.14,1.51-.11.54-.32,1-.48,1.44-.19.53-.19,1.08-.42,1.48-.29.51-.74.82-1.03,1.14-.64.7-.46.59-1.02,1.11-.08.3-.15.52-.01.8.31.61.47.54.78,1.15.31.61.18.68.49,1.29.1.19-.06.36-.27.36-.73,0-.73.09-1.46.09s-.73-.14-1.47-.14-.73.23-1.47.23c-.22,0-.51-.2-.61-.4-.33-.68-.26-.71-.59-1.39-.33-.68-.32-.68-.65-1.36-.09-.2-.26-.29-.42-.29-.17,0-.35.1-.46.31-.38.7-.56.61-.94,1.31-.38.7-.18.81-.55,1.51-.08.15-.33.17-.5.17-.85,0-.85.15-1.7.15s-.85-.14-1.71-.14-.86.11-1.71.11-.86-.07-1.71-.07c-.32,0-.2-.23-.12-.43.08-.2.1-.75.36-1.45.07-.19.24-.45,0-.61-.58-.35-1.18-.53-1.7-.77-.62-.28-1.12-.67-1.65-.86-.64-.23-1.3-.19-1.81-.4-.48-.2-.79-.64-1.17-.96-.39-.32-.9-.53-1.18-.95-.28-.41-.39-.93-.56-1.4-.17-.47-.31-.95-.36-1.44-.05-.49.11-.98.17-1.47.07-.49,0-1.01.19-1.47.17-.43.32-.91.59-1.28.28-.39.79-.56,1.15-.85.37-.3.66-.72,1.1-.9.43-.18.91-.33,1.39-.4.31-.05.63-.16.96-.16.02.02.4.68.86,1.18.33.37.6.83.83,1.07.21.22.43.39.34,1.02-.09.61-.22,1.12-.56,1.45-.42.41-1.03.5-1.45.64-.41.13-.35.71.03.74.08,0,.17,0,.26,0,.43,0,.92-.07,1.37-.17.53-.11,1.04-.39,1.46-.67.44-.3.89-.7,1.01-1.24.08-.33-.17-.65-.16-.92.03-.59-.05-1.09-.31-1.58-.26-.49-.55-.97-.94-1.4-.39-.42-.71-.91-1.07-1.3-.39-.43-.84-.8-1.23-1.22-.39-.43-.77-.86-1.15-1.29-.4-.43-.78-.9-1.21-1.35-.41-.42-.88-.82-1.32-1.26-.42-.41-.81-.89-1.26-1.32-.48-.45-.84-.95-.94-1.57-.1-.63-.05-1.27.33-1.82.31-.45.67-.88,1.13-1.07.18-.07.36-.1.56-.1M4.13,0C3.65,0,3.19.09,2.78.26c-.99.41-1.62,1.21-2.01,1.78C.15,2.95-.07,4.07.13,5.29c.16.98.66,1.85,1.53,2.67.22.21.42.42.61.64.21.23.41.45.62.66.21.21.43.41.65.61.22.21.44.41.65.62.22.23.43.47.64.7.18.21.36.41.54.61.14.15.3.33.45.51.03.03.06.07.09.1-.48.1-.99.26-1.48.47-.64.27-1.07.7-1.36.99-.07.07-.13.14-.21.2-.06.05-.13.08-.2.13-.36.21-.89.53-1.31,1.11-.37.5-.57,1.03-.73,1.45l-.1.25c-.25.62-.28,1.19-.3,1.61,0,.11,0,.23-.02.34-.02.12-.04.23-.06.35-.08.4-.19.96-.12,1.59.08.75.29,1.4.47,1.89.04.1.07.21.1.31.14.44.31.99.68,1.53.41.59.92.93,1.3,1.18.09.06.18.11.26.18.08.06.15.14.22.21.31.31.77.77,1.46,1.05.49.2.97.27,1.35.33.22.03.43.06.56.11.11.04.34.17.54.29.28.16.59.34.96.51.11.05.21.09.32.14-.01.07-.02.13-.03.19l-.02.09c-.29.79-.23,1.48.18,2.08.41.6,1.08.94,1.86.94.35,0,.53.01.7.03.25.02.51.04,1.01.04.56,0,.87-.04,1.11-.07.18-.02.3-.04.6-.04.26,0,.36.02.53.04.25.04.59.1,1.18.1s.89-.05,1.21-.11c.17-.03.25-.04.49-.04,1.46,0,2.08-.85,2.27-1.22.02-.04.04-.08.06-.11.45.87,1.42,1.47,2.39,1.47.63,0,1.02-.11,1.34-.21l.08-.02s.02,0,.04,0h0c.18,0,.22,0,.36.03.29.06.6.1,1.11.1.46,0,.71-.03.98-.06.15-.02.24-.03.48-.03.82,0,1.56-.4,1.98-1.07.41-.65.44-1.46.08-2.15-.06-.12-.07-.14-.1-.26-.07-.27-.16-.58-.4-1.03-.11-.22-.22-.39-.32-.54.07-.08.16-.18.28-.31.05-.06.12-.12.19-.18.3-.27.74-.69,1.09-1.3.29-.5.39-1,.47-1.39.03-.16.06-.31.1-.4.04-.1.08-.21.12-.31.14-.37.33-.84.44-1.41.1-.51.13-1,.16-1.47l.02-.28c0-.13.02-.26.03-.39.03-.26.05-.54.06-.84.33-.39.62-.84.86-1.34.24-.48.53-1.06.67-1.76.12-.59.08-1.14.05-1.58l-.02-.28c-.04-.7-.2-1.4-.5-2.14-.04-.1-.07-.19-.11-.29-.16-.46-.38-1.09-.88-1.68-.42-.5-.95-1-1.52-1.42-.73-.54-1.51-.7-2.02-.8-.1-.02-.2-.04-.3-.06-.6-.17-1.3-.34-1.96-.34-.29,0-.56.03-.82.1l-.87.22c-.22-.24-.49-.51-.82-.75-.08-.06-.16-.12-.24-.19-.29-.23-.63-.5-1.04-.72-.49-.25-1.06-.48-1.63-.65l-.18-.05c-.47-.15-1.07-.33-1.7-.35h-.23c-.83,0-1.57.12-2.28.36-.78.27-1.42.76-2.12,1.32l-.03.02c-.05-.07-.1-.14-.16-.2-.25-.32-.53-.68-.87-1.04-.28-.29-.57-.59-.87-.89l-.33-.34c-.33-.34-.69-.58-.97-.78-.16-.11-.33-.22-.41-.3-.15-.15-.3-.3-.45-.45-.25-.26-.51-.52-.79-.78-.64-.6-1.42-.97-2.39-1.14l-.18-.03C4.97.07,4.57,0,4.13,0h0Z"/><path class="cls-3" d="M18.61,12.18c1.06.96,1.06,2.77-.1,3.7-.16.12-.4.09-.52-.07-.12-.15-.07-.33,0-.47.34-.73.27-1.77-.15-2.48-.33-.47.33-1.04.76-.67h0Z"/><path class="cls-3" d="M25.78,12.91c.72.7.81,1.96.13,2.74-.35.47-1.6.82-1.3-.11.55-.8.59-1.44.57-2.36-.03-.31.38-.49.6-.27h0Z"/><path class="cls-3" d="M8.43,15.77c.92.57.86,2.04.03,2.67-.53.47-1.61.54-1.22-.3.46-.65.85-1.16.66-1.99-.08-.3.28-.56.54-.38h0Z"/></svg>
